<?xml version="1.0" encoding="utf-8"?>
<!-- Generator: Adobe Illustrator 19.1.0, SVG Export Plug-In . SVG Version: 6.00 Build 0)  -->
<!DOCTYPE svg PUBLIC "-//W3C//DTD SVG 1.1//EN" "http://www.w3.org/Graphics/SVG/1.1/DTD/svg11.dtd" [
        <!ENTITY ns_extend "http://ns.adobe.com/Extensibility/1.0/">
        <!ENTITY ns_ai "http://ns.adobe.com/AdobeIllustrator/10.0/">
        <!ENTITY ns_graphs "http://ns.adobe.com/Graphs/1.0/">
        <!ENTITY ns_vars "http://ns.adobe.com/Variables/1.0/">
        <!ENTITY ns_imrep "http://ns.adobe.com/ImageReplacement/1.0/">
        <!ENTITY ns_sfw "http://ns.adobe.com/SaveForWeb/1.0/">
        <!ENTITY ns_custom "http://ns.adobe.com/GenericCustomNamespace/1.0/">
        <!ENTITY ns_adobe_xpath "http://ns.adobe.com/XPath/1.0/">
        ]>
<svg version="1.1" id="v4"
     xmlns="http://www.w3.org/2000/svg" x="0px" y="0px" viewBox="0 0 40 40"
     style="enable-background:new 0 0 40 40;" xml:space="preserve">
<style type="text/css">
	.st0{fill:#1B0E29;}
	.st1{fill:url(#SVGID_1_);}
</style>
    <g>
        <path class="st0" d="M31.5,40h-23C3.8,40,0,36.2,0,31.5v-23C0,3.8,3.8,0,8.5,0h23C36.2,0,40,3.8,40,8.5v23
            C40,36.2,36.2,40,31.5,40z"/>
        <linearGradient id="SVGID_1_" gradientUnits="userSpaceOnUse" x1="3.5" y1="20" x2="36.5" y2="20">
            <stop offset="2.150538e-002" style="stop-color:#00C4FF"/>
            <stop offset="7.775445e-002" style="stop-color:#03BDFF"/>
            <stop offset="0.1571" style="stop-color:#0BABFF"/>
            <stop offset="0.2501" style="stop-color:#188DFF"/>
            <stop offset="0.3527" style="stop-color:#2A63FF"/>
            <stop offset="0.4194" style="stop-color:#3844FF"/>
            <stop offset="0.9731" style="stop-color:#FF0061"/>
        </linearGradient>
        <path class="st1" d="M20,3.5C10.9,3.5,3.5,10.9,3.5,20c0,9.1,7.4,16.5,16.5,16.5c9.1,0,16.5-7.4,16.5-16.5S29.1,3.5,20,3.5z
             M9.2,20c0-1.6-1.4-2.9-3-2.8c0.7-0.6,1.6-0.9,2.5-0.9c2.1,0,3.8,1.7,3.8,3.8s-1.7,3.8-3.8,3.8c-0.9,0-1.8-0.3-2.5-0.9
            C7.8,22.9,9.2,21.6,9.2,20z M8.7,25.2c2.9,0,5.2-2.3,5.2-5.2s-2.3-5.2-5.2-5.2c-0.9,0-1.8,0.2-2.6,0.7c1.4-2.6,3.9-4.3,6.8-4.7
            c0.3,0.5,0.8,0.8,1.4,0.8c0.6,0,1.1-0.3,1.4-0.8c4,0.6,7.3,3.9,7.9,7.9c-0.5,0.3-0.8,0.8-0.8,1.4c0,0.6,0.3,1.1,0.8,1.4
            c-0.6,4-3.9,7.3-7.9,7.9c-0.3-0.5-0.8-0.8-1.4-0.8s-1.1,0.3-1.4,0.8C10,28.8,7.5,27,6.1,24.5C6.9,25,7.8,25.2,8.7,25.2z
             M12.7,30.6c0.2,0.6,0.8,1.1,1.5,1.1c0.7,0,1.3-0.4,1.5-1.1c2.3-0.3,4.4-1.4,6.1-3c1.6-1.6,2.7-3.8,3-6.1
            c0.6-0.2,1.1-0.8,1.1-1.5c0-0.7-0.4-1.3-1.1-1.5c-0.3-2.3-1.4-4.4-3-6.1c-1.6-1.6-3.8-2.7-6.1-3c-0.2-0.6-0.8-1.1-1.5-1.1
            c-0.7,0-1.3,0.4-1.5,1.1c-2,0.3-3.8,1.1-5.3,2.4C10.2,7.5,15,4.9,20,4.9c8.3,0,15.1,6.8,15.1,15.1S28.3,35.1,20,35.1
            c-5,0-9.8-2.6-12.6-6.8C8.9,29.5,10.7,30.3,12.7,30.6z M7.8,20c0,0.8-0.6,1.4-1.4,1.4c-0.8,0-1.4-0.6-1.4-1.4
            c0-0.8,0.6-1.4,1.4-1.4C7.1,18.6,7.8,19.2,7.8,20z"/>
    </g>
</svg>
