<?xml version="1.0" encoding="UTF-8" standalone="no"?>
<!-- Generator: Adobe Illustrator 24.0.0, SVG Export Plug-In . SVG Version: 6.00 Build 0)  -->

<svg
   version="1.2"
   id="_x30_1._White_color_on_a_blue_accent_background"
   x="0px"
   y="0px"
   viewBox="0 0 240 240"
   xml:space="preserve"
   width="40"
   height="40"
   xmlns="http://www.w3.org/2000/svg"
   xmlns:svg="http://www.w3.org/2000/svg"><defs
   id="defs21" />
<g
   id="g16">
	<rect
   x="-2"
   y="-2"
   fill="#006fbf"
   width="244"
   height="245.6828"
   id="rect2"
   style="stroke-width:1.44293" />
	<g
   id="g14"
   transform="translate(0,63.84124)">
		<g
   id="g12">
			<path
   fill="#ffffff"
   d="m 33.19967,82.56968 c -0.2948,1.17999 0.29559,1.86891 1.27852,1.86891 h 19.17773 l -2.26223,5.01553 c -0.49186,0.98293 -1.47558,1.96664 -3.73702,1.96664 H 21.98863 L 42.24782,31.33211 c 0.19627,-0.88519 -0.19706,-1.67184 -1.37704,-1.67184 h -7.96589 c -2.26223,0 -3.34369,-1.08145 -3.83555,-1.96664 -0.2948,-0.59039 -1.47478,-3.34369 -2.26144,-5.11406 h 26.7495 z"
   id="path4" />
			<path
   fill="#ffffff"
   d="M 108.52673,91.42076 H 100.7579 L 94.56159,44.01874 88.36607,91.42076 H 80.59724 L 91.02163,22.57957 h 3.83555 c 2.95036,0 3.44142,1.86891 3.73701,3.73702 z"
   id="path6" />
			<path
   fill="#ffffff"
   d="m 163.10957,27.69363 c -0.39333,0.88519 -1.47479,1.86811 -3.73701,1.86811 h -5.5074 c -0.98293,0 -1.67184,0.78745 -1.76958,1.67184 v 60.18718 h -5.01633 c -1.67184,0 -1.96664,-0.98372 -1.96664,-1.47478 V 29.56174 h -9.93253 v -4.81847 c 0,-1.17998 0.98293,-2.1637 2.1637,-2.1637 h 28.12656 z"
   id="path8" />
			<path
   fill="#ffffff"
   d="m 208.08524,21.89144 c 4.72073,0.19627 8.55629,4.03181 8.55629,8.75255 v 52.81088 c -0.0985,4.72073 -3.83556,8.45775 -8.55629,8.65401 h -5.40886 c -4.81926,0 -8.75255,-3.93328 -8.85107,-8.65401 V 30.64399 c 0,-4.81927 3.93329,-8.75255 8.85107,-8.75255 z m -2.35997,64.02193 c 2.06519,0 3.73701,-1.67184 3.73701,-3.83554 V 31.92251 c 0,-2.1637 -1.67183,-3.83555 -3.73701,-3.83555 h -1.08224 c -2.06517,0.09853 -3.73701,1.77037 -3.73701,3.83555 v 50.15532 c 0,2.06517 1.67184,3.73701 3.73701,3.83554 z"
   id="path10" />
		</g>
	</g>
</g>
</svg>
