<?xml version="1.0" encoding="utf-8"?>
<!-- Generator: Adobe Illustrator 19.1.0, SVG Export Plug-In . SVG Version: 6.00 Build 0)  -->
<!DOCTYPE svg PUBLIC "-//W3C//DTD SVG 1.1//EN" "http://www.w3.org/Graphics/SVG/1.1/DTD/svg11.dtd" [
        <!ENTITY ns_extend "http://ns.adobe.com/Extensibility/1.0/">
        <!ENTITY ns_ai "http://ns.adobe.com/AdobeIllustrator/10.0/">
        <!ENTITY ns_graphs "http://ns.adobe.com/Graphs/1.0/">
        <!ENTITY ns_vars "http://ns.adobe.com/Variables/1.0/">
        <!ENTITY ns_imrep "http://ns.adobe.com/ImageReplacement/1.0/">
        <!ENTITY ns_sfw "http://ns.adobe.com/SaveForWeb/1.0/">
        <!ENTITY ns_custom "http://ns.adobe.com/GenericCustomNamespace/1.0/">
        <!ENTITY ns_adobe_xpath "http://ns.adobe.com/XPath/1.0/">
        ]>
<svg version="1.1" id="v1" xmlns="http://www.w3.org/2000/svg" x="0px" y="0px" viewBox="0 0 40 40"
     style="enable-background:new 0 0 40 40;" xml:space="preserve">
<style type="text/css">
	.st0{fill:#1B0E29;}
	.st1{fill:url(#SVGID_1_);}
</style>
    <g>
	<path class="st0"
          d="M36,40H4c-2.2,0-4-1.8-4-4V4c0-2.2,1.8-4,4-4h32c2.2,0,4,1.8,4,4v32C40,38.2,38.2,40,36,40z"/>
        <g>
		<linearGradient id="SVGID_1_" gradientUnits="userSpaceOnUse" x1="3" y1="20" x2="37" y2="20">
			<stop offset="2.150538e-002" style="stop-color:#00C4FF"/>
            <stop offset="7.775445e-002" style="stop-color:#03BDFF"/>
            <stop offset="0.1571" style="stop-color:#0BABFF"/>
            <stop offset="0.2501" style="stop-color:#188DFF"/>
            <stop offset="0.3527" style="stop-color:#2A63FF"/>
            <stop offset="0.4194" style="stop-color:#3844FF"/>
            <stop offset="0.9731" style="stop-color:#FF0061"/>
		</linearGradient>
            <path class="st1" d="M20,3C10.6,3,3,10.6,3,20c0,9.4,7.6,17,17,17c9.4,0,17-7.6,17-17S29.4,3,20,3z M8.7,20
			c0-1.6-1.3-2.9-2.9-2.9c-0.1,0-0.3,0-0.4,0C6.2,16.4,7.2,16,8.3,16c2.2,0,4,1.8,4,4s-1.8,4-4,4c-1.1,0-2.1-0.4-2.9-1.2
			c0.1,0,0.3,0,0.4,0C7.4,22.9,8.7,21.6,8.7,20z M8.3,25.3c2.9,0,5.3-2.4,5.3-5.3s-2.4-5.3-5.3-5.3c-1.1,0-2.1,0.3-3,0.9
			c1.4-2.9,4.2-4.9,7.4-5.3c0.3,0.5,0.8,0.8,1.4,0.8c0.6,0,1.1-0.3,1.4-0.8c4.2,0.6,7.7,4.1,8.3,8.3c-0.5,0.3-0.8,0.8-0.8,1.4
			c0,0.6,0.3,1.1,0.8,1.4c-0.6,4.2-4.1,7.7-8.3,8.3c-0.3-0.5-0.8-0.8-1.4-0.8s-1.1,0.3-1.4,0.8c-3.2-0.4-5.9-2.5-7.4-5.3
			C6.2,25,7.2,25.3,8.3,25.3z M12.5,30.9c0.2,0.7,0.8,1.1,1.5,1.1c0.7,0,1.3-0.4,1.5-1.1c2.4-0.3,4.6-1.4,6.3-3.1
			c1.7-1.7,2.8-3.9,3.1-6.3c0.7-0.2,1.1-0.8,1.1-1.5s-0.4-1.3-1.1-1.5c-0.3-2.4-1.4-4.6-3.1-6.3c-1.7-1.7-3.9-2.8-6.3-3.1
			C15.3,8.4,14.7,8,14,8c-0.7,0-1.3,0.4-1.5,1.1c-2.3,0.3-4.4,1.3-6.1,2.9c2.8-4.7,8-7.7,13.5-7.7c8.7,0,15.7,7.1,15.7,15.7
			S28.7,35.7,20,35.7c-5.5,0-10.7-3-13.5-7.7C8.1,29.6,10.3,30.6,12.5,30.9z M7.4,20c0,0.9-0.7,1.6-1.6,1.6
			c-0.9,0-1.6-0.7-1.6-1.6s0.7-1.6,1.6-1.6C6.7,18.4,7.4,19.1,7.4,20z"/>
		</g>
	</g>
</svg>
