<?xml version="1.0" encoding="utf-8"?>
<!-- Generator: Adobe Illustrator 19.1.0, SVG Export Plug-In . SVG Version: 6.00 Build 0)  -->
<!DOCTYPE svg PUBLIC "-//W3C//DTD SVG 1.1//EN" "http://www.w3.org/Graphics/SVG/1.1/DTD/svg11.dtd" [
        <!ENTITY ns_extend "http://ns.adobe.com/Extensibility/1.0/">
        <!ENTITY ns_ai "http://ns.adobe.com/AdobeIllustrator/10.0/">
        <!ENTITY ns_graphs "http://ns.adobe.com/Graphs/1.0/">
        <!ENTITY ns_vars "http://ns.adobe.com/Variables/1.0/">
        <!ENTITY ns_imrep "http://ns.adobe.com/ImageReplacement/1.0/">
        <!ENTITY ns_sfw "http://ns.adobe.com/SaveForWeb/1.0/">
        <!ENTITY ns_custom "http://ns.adobe.com/GenericCustomNamespace/1.0/">
        <!ENTITY ns_adobe_xpath "http://ns.adobe.com/XPath/1.0/">
        ]>
<svg version="1.1" id="v2" xmlns="http://www.w3.org/2000/svg" x="0px" y="0px" viewBox="0 0 40 40"
     style="enable-background:new 0 0 40 40;" xml:space="preserve"
     width="16" height="16">
	<g>
		<path d="M20,2C10.1,2,2,10.1,2,20c0,9.9,8.1,18,18,18c9.9,0,18-8.1,18-18S29.9,2,20,2z M3.5,20c0-0.9,0.7-1.6,1.6-1.6
			s1.6,0.7,1.6,1.6S6,21.6,5.1,21.6S3.5,20.9,3.5,20z M5.1,16.9c-0.1,0-0.1,0-0.2,0c0.8-0.7,1.7-1,2.7-1c2.3,0,4.1,1.9,4.1,4.1
			s-1.9,4.1-4.1,4.1c-1,0-2-0.4-2.7-1c0.1,0,0.1,0,0.2,0c1.7,0,3.1-1.4,3.1-3.1S6.8,16.9,5.1,16.9z M4.8,24.9
			c0.9,0.5,1.9,0.8,2.9,0.8c3.1,0,5.7-2.5,5.7-5.7s-2.5-5.7-5.7-5.7c-1,0-2,0.3-2.9,0.8c1.5-2.8,4.3-4.7,7.5-5.2
			c0.3,0.5,0.9,0.8,1.5,0.8c0.6,0,1.2-0.3,1.5-0.8c4.3,0.6,7.9,4.2,8.6,8.6C23.3,18.8,23,19.4,23,20s0.3,1.2,0.8,1.5
			c-0.6,4.3-4.2,7.9-8.6,8.6c-0.3-0.5-0.9-0.8-1.5-0.8s-1.2,0.3-1.5,0.8C9.1,29.6,6.3,27.7,4.8,24.9z M20,36.5
			c-5.5,0-10.7-2.8-13.8-7.5c1.7,1.4,3.7,2.3,5.8,2.6c0.3,0.7,0.9,1.2,1.7,1.2c0.7,0,1.4-0.5,1.7-1.2c2.5-0.4,4.8-1.5,6.6-3.3
			c1.8-1.8,3-4.1,3.3-6.6c0.7-0.2,1.2-0.9,1.2-1.7s-0.5-1.4-1.2-1.7c-0.4-2.5-1.5-4.8-3.3-6.6c-1.8-1.8-4.1-3-6.6-3.3
			c-0.2-0.7-0.9-1.2-1.7-1.2c-0.7,0-1.4,0.5-1.7,1.2C9.9,8.7,7.9,9.6,6.2,11c3-4.6,8.3-7.5,13.8-7.5c9.1,0,16.5,7.4,16.5,16.5
			S29.1,36.5,20,36.5z"/>
	</g>
</svg>
